<svg width="511" height="84" viewBox="0 0 511 84" fill="none" xmlns="http://www.w3.org/2000/svg">
<path d="M191.163 24.612C190.947 26.484 190.287 28.08 189.183 29.4C188.079 30.72 186.579 31.728 184.683 32.424C182.787 33.12 180.531 33.468 177.915 33.468C175.731 33.468 173.727 33.216 171.903 32.712C170.103 32.208 168.543 31.452 167.223 30.444C165.927 29.436 164.919 28.188 164.199 26.7C163.479 25.188 163.119 23.424 163.119 21.408C163.119 19.392 163.479 17.628 164.199 16.116C164.919 14.604 165.927 13.344 167.223 12.336C168.543 11.304 170.103 10.536 171.903 10.032C173.727 9.504 175.731 9.24 177.915 9.24C180.531 9.24 182.787 9.6 184.683 10.32C186.603 11.04 188.115 12.072 189.219 13.416C190.323 14.736 190.971 16.344 191.163 18.24H186.411C186.099 17.232 185.571 16.368 184.827 15.648C184.107 14.904 183.171 14.34 182.019 13.956C180.867 13.572 179.499 13.38 177.915 13.38C175.947 13.38 174.219 13.692 172.731 14.316C171.243 14.916 170.091 15.816 169.275 17.016C168.459 18.192 168.051 19.656 168.051 21.408C168.051 23.136 168.459 24.588 169.275 25.764C170.091 26.94 171.243 27.84 172.731 28.464C174.219 29.064 175.947 29.364 177.915 29.364C179.499 29.364 180.855 29.172 181.983 28.788C183.135 28.404 184.071 27.852 184.791 27.132C185.535 26.412 186.075 25.572 186.411 24.612H191.163ZM200.587 7.26V11.364H195.151V7.26H200.587ZM195.511 15.108H200.191V33H195.511V15.108ZM204.855 15.108H209.535V33H204.855V15.108ZM217.851 14.712C218.955 14.712 219.975 14.856 220.911 15.144C221.847 15.432 222.663 15.876 223.359 16.476C224.055 17.076 224.595 17.844 224.979 18.78C225.363 19.692 225.555 20.784 225.555 22.056V33H220.875V22.884C220.875 21.372 220.503 20.268 219.759 19.572C219.039 18.852 217.851 18.492 216.195 18.492C214.947 18.492 213.819 18.732 212.811 19.212C211.803 19.692 210.987 20.304 210.363 21.048C209.739 21.768 209.379 22.524 209.283 23.316L209.247 21.48C209.367 20.64 209.643 19.824 210.075 19.032C210.507 18.24 211.083 17.52 211.803 16.872C212.547 16.2 213.423 15.672 214.431 15.288C215.439 14.904 216.579 14.712 217.851 14.712ZM246.124 27.06H250.66C250.468 28.284 249.952 29.376 249.112 30.336C248.296 31.296 247.18 32.052 245.764 32.604C244.348 33.156 242.62 33.432 240.58 33.432C238.3 33.432 236.284 33.072 234.532 32.352C232.78 31.608 231.412 30.54 230.428 29.148C229.444 27.756 228.952 26.076 228.952 24.108C228.952 22.14 229.432 20.46 230.392 19.068C231.352 17.652 232.684 16.572 234.388 15.828C236.116 15.084 238.132 14.712 240.436 14.712C242.788 14.712 244.744 15.084 246.304 15.828C247.864 16.572 249.016 17.7 249.76 19.212C250.528 20.7 250.852 22.608 250.732 24.936H233.668C233.788 25.848 234.124 26.676 234.676 27.42C235.252 28.164 236.02 28.752 236.98 29.184C237.964 29.616 239.128 29.832 240.472 29.832C241.96 29.832 243.196 29.58 244.18 29.076C245.188 28.548 245.836 27.876 246.124 27.06ZM240.22 18.276C238.492 18.276 237.088 18.66 236.008 19.428C234.928 20.172 234.232 21.096 233.92 22.2H246.088C245.968 21 245.392 20.052 244.36 19.356C243.352 18.636 241.972 18.276 240.22 18.276ZM259.039 19.32H277.507V23.316H259.039V19.32ZM276.715 9.708H281.503V33H276.715V9.708ZM254.827 9.708H259.615V33H254.827V9.708ZM307.118 33H302.438V15.108H307.118V33ZM302.69 24.396L302.726 25.62C302.678 25.956 302.558 26.448 302.366 27.096C302.174 27.72 301.874 28.392 301.466 29.112C301.082 29.832 300.578 30.528 299.954 31.2C299.33 31.848 298.562 32.388 297.65 32.82C296.738 33.228 295.658 33.432 294.41 33.432C293.426 33.432 292.454 33.312 291.494 33.072C290.558 32.832 289.706 32.436 288.938 31.884C288.17 31.308 287.558 30.54 287.102 29.58C286.646 28.62 286.418 27.408 286.418 25.944V15.108H291.098V25.152C291.098 26.304 291.278 27.216 291.638 27.888C292.022 28.536 292.574 28.992 293.294 29.256C294.014 29.52 294.866 29.652 295.85 29.652C297.146 29.652 298.262 29.376 299.198 28.824C300.134 28.248 300.89 27.552 301.466 26.736C302.066 25.92 302.474 25.14 302.69 24.396ZM311.379 15.108H316.059V33H311.379V15.108ZM324.375 14.712C325.479 14.712 326.499 14.856 327.435 15.144C328.371 15.432 329.187 15.876 329.883 16.476C330.579 17.076 331.119 17.844 331.503 18.78C331.887 19.692 332.079 20.784 332.079 22.056V33H327.399V22.884C327.399 21.372 327.027 20.268 326.283 19.572C325.563 18.852 324.375 18.492 322.719 18.492C321.471 18.492 320.343 18.732 319.335 19.212C318.327 19.692 317.511 20.304 316.887 21.048C316.263 21.768 315.903 22.524 315.807 23.316L315.771 21.48C315.891 20.64 316.167 19.824 316.599 19.032C317.031 18.24 317.607 17.52 318.327 16.872C319.071 16.2 319.947 15.672 320.955 15.288C321.963 14.904 323.103 14.712 324.375 14.712ZM335.08 15.108H348.976V18.744H335.08V15.108ZM339.688 10.212H344.368V33H339.688V10.212Z" fill="white"/>
<path d="M161.329 71V49.1818H173.506V50.4176H162.661V59.4624H172.494V60.6982H162.661V71H161.329ZM178.513 71V54.6364H179.802V71H178.513ZM179.163 51.7386C178.879 51.7386 178.63 51.6392 178.417 51.4403C178.211 51.2415 178.108 51 178.108 50.7159C178.108 50.4318 178.211 50.1903 178.417 49.9915C178.623 49.7926 178.872 49.6932 179.163 49.6932C179.447 49.6932 179.692 49.7926 179.898 49.9915C180.111 50.1903 180.218 50.4318 180.218 50.7159C180.218 51 180.115 51.2415 179.909 51.4403C179.703 51.6392 179.454 51.7386 179.163 51.7386ZM186.546 60.3892V71H185.246V54.6364H186.514V57.2251H186.642C187.025 56.38 187.64 55.7017 188.485 55.1903C189.33 54.679 190.335 54.4233 191.5 54.4233C192.6 54.4233 193.566 54.6577 194.397 55.1264C195.235 55.5952 195.889 56.2628 196.358 57.1293C196.833 57.9886 197.071 59.0149 197.071 60.2081V71H195.772V60.2614C195.772 58.8693 195.356 57.7507 194.525 56.9055C193.701 56.0533 192.611 55.6271 191.255 55.6271C190.346 55.6271 189.536 55.826 188.826 56.2237C188.115 56.6214 187.558 57.179 187.153 57.8963C186.748 58.6065 186.546 59.4375 186.546 60.3892ZM208.087 71.3409C206.773 71.3409 205.626 70.9787 204.646 70.2543C203.666 69.5298 202.906 68.532 202.366 67.2607C201.833 65.9822 201.567 64.5156 201.567 62.8608C201.567 61.2202 201.837 59.7642 202.377 58.4929C202.924 57.2145 203.687 56.2131 204.667 55.4886C205.647 54.7571 206.791 54.3913 208.098 54.3913C209.035 54.3913 209.848 54.5724 210.537 54.9347C211.233 55.2898 211.816 55.7621 212.284 56.3516C212.76 56.9411 213.123 57.5874 213.371 58.2905H213.499V49.1818H214.788V71H213.531V67.4311H213.371C213.108 68.1342 212.743 68.7841 212.274 69.3807C211.805 69.9702 211.223 70.446 210.527 70.8082C209.831 71.1634 209.017 71.3409 208.087 71.3409ZM208.204 70.1371C209.312 70.1371 210.26 69.821 211.049 69.1889C211.844 68.5497 212.451 67.6832 212.87 66.5895C213.297 65.4886 213.51 64.2422 213.51 62.8501C213.51 61.4581 213.297 60.2187 212.87 59.1321C212.451 58.0384 211.844 57.179 211.049 56.554C210.26 55.9219 209.312 55.6058 208.204 55.6058C207.082 55.6058 206.12 55.9254 205.317 56.5646C204.522 57.1967 203.911 58.0597 203.485 59.1534C203.066 60.2472 202.856 61.4794 202.856 62.8501C202.856 64.2209 203.066 65.4567 203.485 66.5575C203.911 67.6584 204.522 68.532 205.317 69.1783C206.12 69.8175 207.082 70.1371 208.204 70.1371ZM227.316 49.1818H228.893L235.765 59.7074H235.914L242.785 49.1818H244.362L236.51 61.103V71H235.168V61.103L227.316 49.1818ZM251.769 71.3409C250.419 71.3409 249.219 70.9787 248.168 70.2543C247.117 69.5227 246.289 68.5178 245.686 67.2393C245.082 65.9609 244.78 64.505 244.78 62.8714C244.78 61.2308 245.082 59.7749 245.686 58.5036C246.289 57.2251 247.117 56.2202 248.168 55.4886C249.219 54.7571 250.419 54.3913 251.769 54.3913C253.118 54.3913 254.318 54.7571 255.369 55.4886C256.421 56.2202 257.248 57.2251 257.852 58.5036C258.455 59.782 258.757 61.2379 258.757 62.8714C258.757 64.505 258.455 65.9609 257.852 67.2393C257.248 68.5178 256.421 69.5227 255.369 70.2543C254.318 70.9787 253.118 71.3409 251.769 71.3409ZM251.769 70.1371C252.912 70.1371 253.91 69.8139 254.762 69.1676C255.622 68.5213 256.286 67.6477 256.754 66.5469C257.23 65.446 257.468 64.2209 257.468 62.8714C257.468 61.522 257.23 60.3004 256.754 59.2067C256.279 58.1058 255.615 57.2322 254.762 56.5859C253.91 55.9325 252.912 55.6058 251.769 55.6058C250.625 55.6058 249.627 55.9325 248.775 56.5859C247.923 57.2322 247.259 58.1058 246.783 59.2067C246.307 60.3004 246.069 61.522 246.069 62.8714C246.069 64.2209 246.303 65.446 246.772 66.5469C247.248 67.6477 247.912 68.5213 248.764 69.1676C249.624 69.8139 250.625 70.1371 251.769 70.1371ZM273.717 65.1939V54.6364H275.017V71H273.717V68.3473H273.611C273.227 69.1925 272.606 69.8814 271.746 70.4141C270.894 70.9467 269.886 71.2131 268.721 71.2131C267.648 71.2131 266.7 70.9787 265.876 70.5099C265.053 70.0412 264.406 69.3771 263.938 68.5178C263.469 67.6513 263.234 66.6214 263.234 65.4283V54.6364H264.534V65.375C264.534 66.7386 264.946 67.843 265.77 68.6882C266.601 69.5263 267.673 69.9453 268.987 69.9453C269.839 69.9453 270.624 69.7536 271.342 69.37C272.059 68.9865 272.634 68.4396 273.067 67.7294C273.501 67.0121 273.717 66.1669 273.717 65.1939ZM280.402 71V54.6364H281.67V57.1932H281.787C282.142 56.3551 282.743 55.6839 283.588 55.1797C284.433 54.6683 285.395 54.4126 286.475 54.4126C286.588 54.4126 286.702 54.4126 286.816 54.4126C286.929 54.4126 287.036 54.4162 287.135 54.4233V55.7337C287.05 55.7266 286.947 55.7159 286.826 55.7017C286.713 55.6804 286.571 55.6697 286.4 55.6697C285.491 55.6697 284.681 55.8651 283.971 56.2557C283.268 56.6463 282.714 57.1861 282.309 57.875C281.904 58.5568 281.702 59.3381 281.702 60.2188V71H280.402ZM299.523 71V49.1818H311.699V50.4176H300.854V59.4624H310.687V60.6982H300.854V71H299.523ZM316.706 71V54.6364H317.996V71H316.706ZM317.356 51.7386C317.072 51.7386 316.824 51.6392 316.611 51.4403C316.405 51.2415 316.302 51 316.302 50.7159C316.302 50.4318 316.405 50.1903 316.611 49.9915C316.817 49.7926 317.065 49.6932 317.356 49.6932C317.64 49.6932 317.885 49.7926 318.091 49.9915C318.305 50.1903 318.411 50.4318 318.411 50.7159C318.411 51 318.308 51.2415 318.102 51.4403C317.896 51.6392 317.648 51.7386 317.356 51.7386ZM324.739 49.1818V71H323.439V49.1818H324.739ZM330.119 71V54.6364H331.387V57.108H331.515C331.827 56.2841 332.367 55.6307 333.134 55.1477C333.901 54.6648 334.824 54.4233 335.904 54.4233C337.09 54.4233 338.045 54.7074 338.77 55.2756C339.501 55.8437 340.027 56.6143 340.346 57.5874H340.464C340.783 56.6286 341.355 55.8615 342.179 55.2862C343.01 54.7109 344.032 54.4233 345.247 54.4233C346.831 54.4233 348.038 54.924 348.869 55.9254C349.707 56.9197 350.126 58.2834 350.126 60.0163V71H348.827V60.0163C348.827 58.6527 348.5 57.5803 347.846 56.799C347.193 56.0178 346.234 55.6271 344.97 55.6271C343.621 55.6271 342.584 56.0497 341.859 56.8949C341.135 57.7401 340.773 58.8161 340.773 60.1229V71H339.473V59.9311C339.473 58.6598 339.153 57.6264 338.514 56.831C337.875 56.0284 336.916 55.6271 335.638 55.6271C334.771 55.6271 334.022 55.826 333.39 56.2237C332.765 56.6214 332.278 57.1683 331.93 57.8643C331.589 58.5604 331.419 59.3594 331.419 60.2614V71H330.119Z" fill="white"/>
<g clip-path="url(#clip0_94_56)">
<path d="M130.1 9H83.9C78.4324 9 74 13.4324 74 18.9V65.1C74 70.5676 78.4324 75 83.9 75H130.1C135.568 75 140 70.5676 140 65.1V18.9C140 13.4324 135.568 9 130.1 9Z" fill="#F5C518"/>
<path d="M87.4062 51.2812V32.7188H82.25V51.2812H87.4062ZM98.3633 32.7188L97.2031 41.3555L96.5586 36.7148L95.9141 32.7188H89.4688V51.2812H93.8516V39.0352L95.6562 51.2812H98.8789L100.555 38.7773V51.2812H104.938V32.7188H98.3633ZM107 51.2812V32.7188H114.992C116.926 32.7188 118.344 34.1367 118.344 35.9414V48.0586C118.344 49.8633 116.926 51.2812 114.992 51.2812H107ZM113.059 36.0703L111.898 35.9414V48.0586C112.543 48.0586 113.059 47.9297 113.188 47.6719C113.445 47.4141 113.445 46.6406 113.445 45.3516V38.1328V36.5859L113.059 36.0703ZM128.012 37.3594H128.398C130.203 37.3594 131.75 38.7773 131.75 40.582V48.0586C131.75 49.8633 130.203 51.2812 128.398 51.2812H128.012C126.98 51.2812 125.949 50.7656 125.305 49.8633L125.047 51.0234H120.406V32.7188H125.305V38.6484C125.949 37.875 126.98 37.3594 128.012 37.3594ZM126.98 46.3828V42L126.852 40.582C126.723 40.3242 126.336 40.1953 126.078 40.1953C125.82 40.1953 125.434 40.3242 125.305 40.582V47.9297C125.434 48.1875 125.82 48.3164 126.078 48.3164C126.336 48.3164 126.852 48.1875 126.852 47.9297L126.98 46.3828Z" fill="black"/>
</g>
<defs>
<clipPath id="clip0_94_56">
<rect width="66" height="66" fill="white" transform="translate(74 9)"/>
</clipPath>
</defs>
</svg>
